<svg xmlns="http://www.w3.org/2000/svg" xmlns:xlink="http://www.w3.org/1999/xlink" version="1.1" id="Layer_1" x="0" y="0" viewBox="0 0 20.2 21" xml:space="preserve" enable-background="new 0 0 20.2 21"><path d="M6.2 13.8c0 0.1 0.1 0.2 0.2 0.2H18v2H6c-1.1 0-2-0.9-2-2 0-0.3 0.1-0.7 0.2-0.9l1.4-2.5L2 3H0V1h3.3c0.6 1.3 1.3 2.6 1.9 4C6 6.7 6.7 8.4 7.5 10h7c1.3-2.3 2.6-4.7 3.8-7l1.7 1 -3.8 7c-0.3 0.6-1 1-1.7 1H7.1l-0.9 1.6L6.2 13.8zM16 17c1.1 0 2 0.9 2 2s-0.9 2-2 2 -2-0.9-2-2S15 17 16 17zM6 17c1.1 0 2 0.9 2 2s-0.9 2-2 2 -2-0.9-2-2S4.9 17 6 17zM10 8V5H7V3h3V0h2v3h3v2h-3v3H10z"/></svg>