<svg xmlns="http://www.w3.org/2000/svg" xmlns:xlink="http://www.w3.org/1999/xlink" version="1.1" id="Layer_1" x="0" y="0" viewBox="0 0 32 29.6" xml:space="preserve" enable-background="new 0 0 32 29.6"><path d="M28.9 25.7c-3.5 2.6-8.6 4-13 4 -6.1 0-11.6-2.3-15.8-6 -0.3-0.3 0-0.7 0.4-0.5 4.5 2.6 10.1 4.2 15.8 4.2 3.9 0 8.1-0.8 12.1-2.5C29 24.6 29.5 25.2 28.9 25.7L28.9 25.7z"/><path d="M30.4 24c-0.5-0.6-3-0.3-4.1-0.1 -0.3 0-0.4-0.3-0.1-0.5 2-1.4 5.3-1 5.7-0.5 0.4 0.5-0.1 3.8-2 5.3 -0.3 0.2-0.6 0.1-0.4-0.2C29.9 26.9 30.8 24.6 30.4 24L30.4 24z"/><path d="M22.1 21.7L22.1 21.7c0.8-0.7 2.2-1.9 3-2.5 0.3-0.2 0.3-0.7 0-1 -0.7-1-1.5-1.8-1.5-3.6v-6c0-2.5 0.2-4.9-1.7-6.6C20.5 0.5 18 0 16.1 0c-3.7 0-7.8 1.4-8.6 5.9C7.4 6.4 7.8 6.6 8.1 6.7l3.7 0.4c0.4 0 0.6-0.4 0.7-0.7 0.3-1.6 1.6-2.3 3.1-2.3 0.8 0 1.7 0.3 2.2 1 0.5 0.8 0.5 1.9 0.5 2.8v0.5C16 8.6 13.1 8.8 11 9.7c-2.4 1-4.1 3.2-4.1 6.3 0 4 2.5 6 5.8 6 2.7 0 4.2-0.6 6.3-2.8 0.7 1 0.9 1.5 2.2 2.6C21.5 21.9 21.8 21.9 22.1 21.7L22.1 21.7zM18.2 12.3c0 1.5 0 2.7-0.7 4.1 -0.6 1.1-1.6 1.8-2.7 1.8 -1.5 0-2.3-1.1-2.3-2.8 0-3.3 2.9-3.9 5.7-3.9L18.2 12.3 18.2 12.3z"/></svg>