<svg xmlns="http://www.w3.org/2000/svg" xmlns:xlink="http://www.w3.org/1999/xlink" version="1.1" id="Layer_1" x="0" y="0" viewBox="0 0 22.7 22.7" xml:space="preserve" enable-background="new 0 0 22.7 22.7"><path d="M7 16.7c1.1 0 2 0.9 2 2s-0.9 2-2 2 -2-0.9-2-2S5.9 16.7 7 16.7zM15.6 11.7l-9-9H20c0.6 0 1 0.5 1 1 0 0.2 0 0.3-0.1 0.5l-3.6 6.5C17 11.3 16.3 11.7 15.6 11.7L15.6 11.7zM7.4 13.7h5.1l-2-2H8.1l-0.9 1.6 0 0.1C7.2 13.6 7.3 13.7 7.4 13.7L7.4 13.7zM22.7 21.5l-1.3 1.3 -2.9-2.9c-0.4 0.5-0.9 0.8-1.6 0.8 -1.1 0-2-0.9-2-2 0-0.7 0.3-1.3 0.8-1.6l-1.4-1.4H7c-1.1 0-2-0.9-2-2 0-0.3 0.1-0.7 0.2-0.9l1.4-2.5L4.4 5.7 0 1.3 1.3 0 22.7 21.5z"/></svg>