<svg xmlns="http://www.w3.org/2000/svg" xmlns:xlink="http://www.w3.org/1999/xlink" version="1.1" id="Layer_1" x="0" y="0" viewBox="0 0 20 20" xml:space="preserve" enable-background="new 0 0 20 20"><path d="M16 16c1.1 0 2 0.9 2 2s-0.9 2-2 2 -2-0.9-2-2S15 16 16 16zM0 0h3.3l0.9 2H19c0.6 0 1 0.5 1 1 0 0.2 0 0.3-0.1 0.5l-3.6 6.5c-0.3 0.6-1 1-1.7 1H7.1l-0.9 1.6 0 0.1c0 0.1 0.1 0.2 0.2 0.2H18v2H6c-1.1 0-2-0.9-2-2 0-0.3 0.1-0.7 0.2-0.9l1.4-2.5L2 2H0L0 0 0 0zM6 16c1.1 0 2 0.9 2 2s-0.9 2-2 2 -2-0.9-2-2S4.9 16 6 16z"/></svg>